<svg width="32" height="32" viewBox="0 0 32 32" fill="none" xmlns="http://www.w3.org/2000/svg">
<path d="M22.025 12.4625H28.025V6.46252" stroke="black" stroke-width="2" stroke-linecap="round" stroke-linejoin="round"/>
<path d="M8.22501 8.22499C9.2455 7.20301 10.4575 6.39224 11.7916 5.83907C13.1257 5.28589 14.5558 5.00116 16 5.00116C17.4443 5.00116 18.8743 5.28589 20.2084 5.83907C21.5425 6.39224 22.7545 7.20301 23.775 8.22499L28.025 12.4625" stroke="black" stroke-width="2" stroke-linecap="round" stroke-linejoin="round"/>
<path d="M9.97501 19.5375H3.97501V25.5375" stroke="black" stroke-width="2" stroke-linecap="round" stroke-linejoin="round"/>
<path d="M23.775 23.775C22.7545 24.797 21.5425 25.6077 20.2084 26.1609C18.8743 26.7141 17.4443 26.9988 16 26.9988C14.5558 26.9988 13.1257 26.7141 11.7916 26.1609C10.4575 25.6077 9.2455 24.797 8.22501 23.775L3.97501 19.5375" stroke="black" stroke-width="2" stroke-linecap="round" stroke-linejoin="round"/>
</svg>
